# xmcd CD database file
# Copyright (C) 1995-1998 Ti Kan
#
# Track frame offsets:
#	150
#	21659
#	40560
#	65687
#	84940
#	101267
#	119892
#	147004
#	166716
#	184181
#	211665
#	229827
#	255629
#	277831
#	303335
#
# Disc length: 4398 seconds
#
# Revision: 1
# Processed by: cddbd v1.4PL0 Copyright (c) Steve Scherf et al.
# Submitted via: CDex 1.40Beta3
#
DISCID=c4112c0f
DTITLE=Michael Jackson - Greatest Hits
DYEAR=1900
DGENRE=Blues
TTITLE0=They Don't Care About Us
TTITLE1=Blood On The Dance Floor
TTITLE2=Morphine
TTITLE3=Black Or White
TTITLE4=Earth Songs
TTITLE5=Bad
TTITLE6=Thriller
TTITLE7=Beat It
TTITLE8=Billie Jean
TTITLE9=Dangerous
TTITLE10=Remember The Time
TTITLE11=You Are Not Alone
TTITLE12=Jam
TTITLE13=Wanna Be Starting Somthing
TTITLE14=Heal The World
EXTD=ID3G:   0
EXTT0=
EXTT1=
EXTT2=
EXTT3=
EXTT4=
EXTT5=
EXTT6=
EXTT7=
EXTT8=
EXTT9=
EXTT10=
EXTT11=
EXTT12=
EXTT13=
EXTT14=
PLAYORDER=
